<?xml version="1.0" encoding="UTF-8" standalone="no"?>
<!-- Created with Inkscape (http://www.inkscape.org/) -->

<svg
   xmlns:dc="http://purl.org/dc/elements/1.1/"
   xmlns:cc="http://creativecommons.org/ns#"
   xmlns:rdf="http://www.w3.org/1999/02/22-rdf-syntax-ns#"
   xmlns:svg="http://www.w3.org/2000/svg"
   xmlns="http://www.w3.org/2000/svg"
   xmlns:sodipodi="http://sodipodi.sourceforge.net/DTD/sodipodi-0.dtd"
   xmlns:inkscape="http://www.inkscape.org/namespaces/inkscape"
   version="1.1"
   id="svg2"
   xml:space="preserve"
   width="666.66669"
   height="666.66669"
   viewBox="0 0 666.66669 666.66669"
   sodipodi:docname="fix.svg"
   inkscape:version="0.92.3 (2405546, 2018-03-11)"><metadata
     id="metadata8"><rdf:RDF><cc:Work
         rdf:about=""><dc:format>image/svg+xml</dc:format><dc:type
           rdf:resource="http://purl.org/dc/dcmitype/StillImage" /><dc:title></dc:title></cc:Work></rdf:RDF></metadata><defs
     id="defs6"><clipPath
       clipPathUnits="userSpaceOnUse"
       id="clipPath20"><path
         d="M 0,500 H 500 V 0 H 0 Z"
         id="path18"
         inkscape:connector-curvature="0" /></clipPath><clipPath
       clipPathUnits="userSpaceOnUse"
       id="clipPath28"><path
         d="M 249.666,500 H 500 V 0 H 249.666 Z"
         id="path26"
         inkscape:connector-curvature="0" /></clipPath><clipPath
       clipPathUnits="userSpaceOnUse"
       id="clipPath42"><path
         d="M 0,500 H 500 V 0 H 0 Z"
         id="path40"
         inkscape:connector-curvature="0" /></clipPath><clipPath
       clipPathUnits="userSpaceOnUse"
       id="clipPath50"><path
         d="M 2.44141e-4,500 H 500.152 V -3.05176e-5 H 2.44141e-4 Z"
         id="path48"
         inkscape:connector-curvature="0" /></clipPath><clipPath
       clipPathUnits="userSpaceOnUse"
       id="clipPath10466"><path
         d="M 0,500 H 500 V 0 H 0 Z"
         id="path10464"
         inkscape:connector-curvature="0" /></clipPath><clipPath
       clipPathUnits="userSpaceOnUse"
       id="clipPath10560"><path
         d="M 0,500 H 500 V 0 H 0 Z"
         id="path10558"
         inkscape:connector-curvature="0" /></clipPath><clipPath
       clipPathUnits="userSpaceOnUse"
       id="clipPath10624"><path
         d="M 0,500 H 500 V 0 H 0 Z"
         id="path10622"
         inkscape:connector-curvature="0" /></clipPath><clipPath
       clipPathUnits="userSpaceOnUse"
       id="clipPath10738"><path
         d="M 0,500 H 500 V 0 H 0 Z"
         id="path10736"
         inkscape:connector-curvature="0" /></clipPath><clipPath
       clipPathUnits="userSpaceOnUse"
       id="clipPath10748"><path
         d="M 0,500 H 500 V 0 H 0 Z"
         id="path10746"
         inkscape:connector-curvature="0" /></clipPath></defs><sodipodi:namedview
     pagecolor="#ffffff"
     bordercolor="#666666"
     borderopacity="1"
     objecttolerance="10"
     gridtolerance="10"
     guidetolerance="10"
     inkscape:pageopacity="0"
     inkscape:pageshadow="2"
     inkscape:window-width="1366"
     inkscape:window-height="717"
     id="namedview4"
     showgrid="false"
     inkscape:zoom="1.0012632"
     inkscape:cx="333.33334"
     inkscape:cy="274.85151"
     inkscape:window-x="0"
     inkscape:window-y="0"
     inkscape:window-maximized="1"
     inkscape:current-layer="g10" /><g
     id="g10"
     inkscape:groupmode="layer"
     inkscape:label="269891-P5HEPY-977"
     transform="matrix(1.3333333,0,0,-1.3333333,0,666.66667)"><g
       id="g10460"><g
         id="g10462"
         clip-path="url(#clipPath10466)"><g
           id="g10468"
           transform="translate(431.2266,289.9146)" /><g
           id="g10476"
           transform="translate(429.5,366.71)" /><g
           id="g10480"
           transform="translate(434.3887,324.0181)" /><g
           id="g10484"
           transform="translate(429.5,249.9438)" /><g
           id="g10488"
           transform="translate(428.6865,179.875)" /><g
           id="g10492"
           transform="translate(331.6729,163.1172)" /><g
           id="g10496"
           transform="translate(424.248,106.0225)" /><g
           id="g10500"
           transform="translate(190.7246,73.2012)"><path
             d="m 0,0 h -99.322 c -14.636,0 -26.5,11.864 -26.5,26.5 v 265.792 c 0,14.635 11.864,26.5 26.5,26.5 H 0 c 14.636,0 26.5,-11.865 26.5,-26.5 V 26.5 C 26.5,11.864 14.636,0 0,0"
             style="fill:#303030;fill-opacity:1;fill-rule:nonzero;stroke:none"
             id="path10502"
             inkscape:connector-curvature="0" /></g><g
           id="g10504"
           transform="translate(191.4009,76.1377)"><path
             d="m 0,0 h -100.674 c -12.496,0 -22.625,10.13 -22.625,22.626 v 267.019 c 0,12.495 10.129,22.625 22.625,22.625 H 0 c 12.496,0 22.625,-10.13 22.625,-22.625 V 22.626 C 22.625,10.13 12.496,0 0,0"
             style="fill:#4c4c4c;fill-opacity:1;fill-rule:nonzero;stroke:none"
             id="path10506"
             inkscape:connector-curvature="0" /></g><g
           id="g10508"
           transform="translate(64.9028,339.6001)"><path
             d="m 0,0 h -1.012 c -1.25,0 -2.264,1.014 -2.264,2.264 v 9.915 c 0,1.251 1.014,2.264 2.264,2.264 l 1.012,0 z"
             style="fill:#f0f0f0;fill-opacity:1;fill-rule:nonzero;stroke:none"
             id="path10510"
             inkscape:connector-curvature="0" /></g><g
           id="g10512"
           transform="translate(64.9028,321.9199)"><path
             d="M 0,0 H -0.762 C -2.15,0 -3.276,1.125 -3.276,2.514 v 9.415 c 0,1.388 1.126,2.514 2.514,2.514 l 0.762,0 z"
             style="fill:#f0f0f0;fill-opacity:1;fill-rule:nonzero;stroke:none"
             id="path10514"
             inkscape:connector-curvature="0" /></g><g
           id="g10516"
           transform="translate(64.9028,304.2397)"><path
             d="M 0,0 H -0.762 C -2.15,0 -3.276,1.125 -3.276,2.514 v 9.415 c 0,1.388 1.126,2.514 2.514,2.514 l 0.762,0 z"
             style="fill:#f0f0f0;fill-opacity:1;fill-rule:nonzero;stroke:none"
             id="path10518"
             inkscape:connector-curvature="0" /></g><g
           id="g10520"
           transform="translate(217.9868,304.2397)"><path
             d="M 0,0 H -0.762 V 26.313 H 0 c 1.388,0 2.514,-1.126 2.514,-2.514 V 2.514 C 2.514,1.125 1.388,0 0,0"
             style="fill:#f0f0f0;fill-opacity:1;fill-rule:nonzero;stroke:none"
             id="path10522"
             inkscape:connector-curvature="0" /></g><g
           id="g10524"
           transform="translate(155.3096,369.3994)"><path
             d="m 0,0 h -31.647 c -0.98,0 -1.775,0.794 -1.775,1.774 v 0.103 c 0,0.981 0.795,1.775 1.775,1.775 H 0 c 0.98,0 1.774,-0.794 1.774,-1.775 V 1.774 C 1.774,0.794 0.98,0 0,0"
             style="fill:#131313;fill-opacity:1;fill-rule:nonzero;stroke:none"
             id="path10526"
             inkscape:connector-curvature="0" /></g><g
           id="g10528"
           transform="translate(141.064,379.9414)"><path
             d="m 0,0 c 0,-0.872 -0.707,-1.578 -1.578,-1.578 -0.872,0 -1.578,0.706 -1.578,1.578 0,0.872 0.706,1.578 1.578,1.578 C -0.707,1.578 0,0.872 0,0"
             style="fill:#131313;fill-opacity:1;fill-rule:nonzero;stroke:none"
             id="path10530"
             inkscape:connector-curvature="0" /></g><g
           id="g10532"
           transform="translate(115.8301,371.2256)"><path
             d="m 0,0 c 0,-1.33 -1.078,-2.407 -2.407,-2.407 -1.33,0 -2.407,1.077 -2.407,2.407 0,1.33 1.077,2.407 2.407,2.407 C -1.078,2.407 0,1.33 0,0"
             style="fill:#131313;fill-opacity:1;fill-rule:nonzero;stroke:none"
             id="path10534"
             inkscape:connector-curvature="0" /></g><g
           id="g10536"
           transform="translate(152.7676,94.3174)"><path
             d="m 0,0 c 0,-6.465 -5.24,-11.704 -11.704,-11.704 -6.463,0 -11.704,5.239 -11.704,11.704 0,6.464 5.241,11.703 11.704,11.703 C -5.24,11.703 0,6.464 0,0"
             style="fill:#303030;fill-opacity:1;fill-rule:nonzero;stroke:none"
             id="path10538"
             inkscape:connector-curvature="0" /></g><g
           id="g10540"
           transform="translate(150.7339,94.3174)"><path
             d="m 0,0 c 0,-5.341 -4.329,-9.671 -9.67,-9.671 -5.341,0 -9.67,4.33 -9.67,9.671 0,5.34 4.329,9.67 9.67,9.67 C -4.329,9.67 0,5.34 0,0"
             style="fill:#4c4c4c;fill-opacity:1;fill-rule:nonzero;stroke:none"
             id="path10542"
             inkscape:connector-curvature="0" /></g><path
           d="M 206.971,112.91 H 75.157 v 241.133 h 131.814 z"
           style="fill:#ffffff;fill-opacity:1;fill-rule:nonzero;stroke:none"
           id="path10544"
           inkscape:connector-curvature="0" /></g></g><text
       transform="matrix(1,0,0,-1,133.3437,343.1455)"
       style="font-variant:normal;font-weight:500;font-stretch:normal;font-size:4.98040009px;font-family:'Montserrat Medium';-inkscape-font-specification:Montserrat-Medium;writing-mode:lr-tb;fill:#000000;fill-opacity:1;fill-rule:nonzero;stroke:none"
       id="text10548"><tspan
         x="0 3.0729067 6.1458135 7.2664037 10.339311"
         y="0"
         sodipodi:role="line"
         id="tspan10546">17:18</tspan></text>
<text
       transform="matrix(1,0,0,-1,175.8613,343.1455)"
       style="font-variant:normal;font-weight:500;font-stretch:normal;font-size:5.7263999px;font-family:'Montserrat Medium';-inkscape-font-specification:Montserrat-Medium;writing-mode:lr-tb;fill:#000000;fill-opacity:1;fill-rule:nonzero;stroke:none"
       id="text10552"><tspan
         x="0 3.5331888 7.0663776"
         y="0"
         sodipodi:role="line"
         id="tspan10550">50%</tspan></text>
<g
       id="g10554"><g
         id="g10556"
         clip-path="url(#clipPath10560)"><g
           id="g10562"
           transform="translate(201.4004,328.1558)"><path
             d="m 0,0 c 0,-5.038 -4.084,-9.122 -9.122,-9.122 -5.038,0 -9.122,4.084 -9.122,9.122 0,5.038 4.084,9.122 9.122,9.122 C -4.084,9.122 0,5.038 0,0"
             style="fill:#f0e4da;fill-opacity:1;fill-rule:nonzero;stroke:none"
             id="path10564"
             inkscape:connector-curvature="0" /></g><g
           id="g10566"
           transform="translate(84.9932,345.1587)"><path
             d="m 0,0 c 0,-0.653 -0.53,-1.183 -1.183,-1.183 -0.653,0 -1.183,0.53 -1.183,1.183 0,0.653 0.53,1.183 1.183,1.183 C -0.53,1.183 0,0.653 0,0"
             style="fill:#000000;fill-opacity:1;fill-rule:nonzero;stroke:none"
             id="path10568"
             inkscape:connector-curvature="0" /></g><g
           id="g10570"
           transform="translate(88.168,345.1587)"><path
             d="m 0,0 c 0,-0.653 -0.529,-1.183 -1.183,-1.183 -0.653,0 -1.183,0.53 -1.183,1.183 0,0.653 0.53,1.183 1.183,1.183 C -0.529,1.183 0,0.653 0,0"
             style="fill:#000000;fill-opacity:1;fill-rule:nonzero;stroke:none"
             id="path10572"
             inkscape:connector-curvature="0" /></g><g
           id="g10574"
           transform="translate(91.3433,345.1587)"><path
             d="m 0,0 c 0,-0.653 -0.53,-1.183 -1.183,-1.183 -0.653,0 -1.183,0.53 -1.183,1.183 0,0.653 0.53,1.183 1.183,1.183 C -0.53,1.183 0,0.653 0,0"
             style="fill:#000000;fill-opacity:1;fill-rule:nonzero;stroke:none"
             id="path10576"
             inkscape:connector-curvature="0" /></g><g
           id="g10578"
           transform="translate(94.5181,345.1587)"><path
             d="m 0,0 c 0,-0.653 -0.53,-1.183 -1.183,-1.183 -0.653,0 -1.183,0.53 -1.183,1.183 0,0.653 0.53,1.183 1.183,1.183 C -0.53,1.183 0,0.653 0,0 Z"
             style="fill:none;stroke:#000000;stroke-width:0.249;stroke-linecap:butt;stroke-linejoin:miter;stroke-miterlimit:10;stroke-dasharray:none;stroke-opacity:1"
             id="path10580"
             inkscape:connector-curvature="0" /></g><g
           id="g10582"
           transform="translate(97.6929,345.1587)"><path
             d="m 0,0 c 0,-0.653 -0.529,-1.183 -1.183,-1.183 -0.653,0 -1.182,0.53 -1.182,1.183 0,0.653 0.529,1.183 1.182,1.183 C -0.529,1.183 0,0.653 0,0 Z"
             style="fill:none;stroke:#000000;stroke-width:0.249;stroke-linecap:butt;stroke-linejoin:miter;stroke-miterlimit:10;stroke-dasharray:none;stroke-opacity:1"
             id="path10584"
             inkscape:connector-curvature="0" /></g><g
           id="g10586"
           transform="translate(103.9209,343.6958)"><path
             d="m 0,0 c 0,-0.243 -0.197,-0.44 -0.44,-0.44 -0.244,0 -0.441,0.197 -0.441,0.44 0,0.243 0.197,0.44 0.441,0.44 C -0.197,0.44 0,0.243 0,0"
             style="fill:#000000;fill-opacity:1;fill-rule:nonzero;stroke:none"
             id="path10588"
             inkscape:connector-curvature="0" /></g><g
           id="g10590"
           transform="translate(101.9551,344.7231)"><path
             d="M 0,0 C 0,0 1.307,1.836 3.082,0"
             style="fill:none;stroke:#000000;stroke-width:0.498;stroke-linecap:round;stroke-linejoin:miter;stroke-miterlimit:10;stroke-dasharray:none;stroke-opacity:1"
             id="path10592"
             inkscape:connector-curvature="0" /></g><g
           id="g10594"
           transform="translate(100.9902,345.8437)"><path
             d="M 0,0 C 0,0 2.334,2.241 4.793,0"
             style="fill:none;stroke:#000000;stroke-width:0.498;stroke-linecap:round;stroke-linejoin:miter;stroke-miterlimit:10;stroke-dasharray:none;stroke-opacity:1"
             id="path10596"
             inkscape:connector-curvature="0" /></g><g
           id="g10598"
           transform="translate(199.417,345.9604)"><path
             d="M 0,0 V 1.266 H -9.898 V -3.092 H 0 v 1.515 H 0.955 V 0 Z"
             style="fill:#000000;fill-opacity:1;fill-rule:nonzero;stroke:none"
             id="path10600"
             inkscape:connector-curvature="0" /></g></g></g><text
       transform="matrix(1,0,0,-1,124.1943,327.1499)"
       style="font-variant:normal;font-weight:500;font-stretch:normal;font-size:5.9763999px;font-family:'Montserrat Medium';-inkscape-font-specification:Montserrat-Medium;writing-mode:lr-tb;fill:#000000;fill-opacity:1;fill-rule:nonzero;stroke:none"
       id="text10604"><tspan
         x="0 5.5042644 7.2433968 10.70433 14.242359 16.035278 19.788458 23.044998 26.798178 29.278383 31.758589"
         y="0"
         sodipodi:role="line"
         id="tspan10602">Mike Scott </tspan></text>
<text
       transform="matrix(1,0,0,-1,117.8223,319.9282)"
       style="font-variant:normal;font-weight:300;font-stretch:normal;font-size:3.9842999px;font-family:'Montserrat Light';-inkscape-font-specification:Montserrat-Light;writing-mode:lr-tb;fill:#000000;fill-opacity:1;fill-rule:nonzero;stroke:none"
       id="text10608"><tspan
         x="0 1.1076354 3.4065764 5.2114644 6.7653413 7.9606314 9.7655191 12.108288 14.451056 17.064756 18.260046 19.782049 22.244347 24.949686 27.164558 29.164677 30.359968 32.658909 34.212784 35.408077 37.86639 40.324703 41.117577 43.57589"
         y="0"
         sodipodi:role="line"
         id="tspan10606">last seen today at 14:29</tspan></text>
<text
       transform="matrix(1,0,0,-1,83.8105,326.6372)"
       style="font-variant:normal;font-weight:normal;font-stretch:normal;font-size:4.98040009px;font-family:Montserrat;-inkscape-font-specification:Montserrat-Regular;writing-mode:lr-tb;fill:#0084ff;fill-opacity:1;fill-rule:nonzero;stroke:none"
       id="text10612"><tspan
         x="0 3.4713387 6.8032265 9.7217407"
         y="0"
         sodipodi:role="line"
         id="tspan10610">Chat</tspan></text>
<text
       transform="matrix(1,0,0,-1,96.51052,326.6372)"
       style="font-variant:normal;font-weight:300;font-stretch:normal;font-size:4.98040009px;font-family:'Montserrat Light';-inkscape-font-specification:Montserrat-Light;writing-mode:lr-tb;fill:#0084ff;fill-opacity:1;fill-rule:nonzero;stroke:none"
       id="text10616"><tspan
         x="0 1.5040808 4.5769877"
         y="0"
         sodipodi:role="line"
         id="tspan10614">(3)</tspan></text>
<g
       id="g10618"><g
         id="g10620"
         clip-path="url(#clipPath10624)"><g
           id="g10626"
           transform="translate(82.0801,331.2881)"><path
             d="M 0,0 -2.724,-3.158 0,-6.395"
             style="fill:none;stroke:#0084ff;stroke-width:0.99599999;stroke-linecap:round;stroke-linejoin:miter;stroke-miterlimit:10;stroke-dasharray:none;stroke-opacity:1"
             id="path10628"
             inkscape:connector-curvature="0" /></g><path
           d="M 206.971,112.91 H 75.157 v 201.318 h 131.814 z"
           style="fill:#f0e4da;fill-opacity:1;fill-rule:nonzero;stroke:none"
           id="path10630"
           inkscape:connector-curvature="0" /><path
           d="M 206.971,112.91 H 75.157 v 21.443 h 131.814 z"
           style="fill:#f7f7f7;fill-opacity:1;fill-rule:nonzero;stroke:none"
           id="path10632"
           inkscape:connector-curvature="0" /><g
           id="g10634"
           transform="translate(175.6123,126.2051)"><path
             d="M 0,0 V 0 C 0,0.871 0.706,1.577 1.577,1.577 H 2.988 C 3.859,1.577 4.565,0.871 4.565,0 h 1.472 c 0.517,0 0.936,-0.419 0.936,-0.936 v -4.703 c 0,-0.598 -0.486,-1.085 -1.085,-1.085 h -7.543 c -0.599,0 -1.084,0.487 -1.084,1.085 v 4.856 c 0,0.432 0.35,0.783 0.783,0.783 z"
             style="fill:none;stroke:#0084ff;stroke-width:0.498;stroke-linecap:round;stroke-linejoin:miter;stroke-miterlimit:10;stroke-dasharray:none;stroke-opacity:1"
             id="path10636"
             inkscape:connector-curvature="0" /></g><path
           d="m 173.496,126.205 h 1.37 v 1.152 h -1.37 z"
           style="fill:none;stroke:#0084ff;stroke-width:0.498;stroke-linecap:round;stroke-linejoin:miter;stroke-miterlimit:10;stroke-dasharray:none;stroke-opacity:1"
           id="path10638"
           inkscape:connector-curvature="0" /><g
           id="g10640"
           transform="translate(179.8457,123.124)"><path
             d="m 0,0 c 0,-1.169 -0.948,-2.117 -2.117,-2.117 -1.169,0 -2.116,0.948 -2.116,2.117 0,1.169 0.947,2.116 2.116,2.116 C -0.948,2.116 0,1.169 0,0 Z"
             style="fill:none;stroke:#0084ff;stroke-width:0.498;stroke-linecap:round;stroke-linejoin:miter;stroke-miterlimit:10;stroke-dasharray:none;stroke-opacity:1"
             id="path10642"
             inkscape:connector-curvature="0" /></g><g
           id="g10644"
           transform="translate(181.0283,124.8984)"><path
             d="m 0,0 c 0,-0.241 -0.195,-0.437 -0.436,-0.437 -0.24,0 -0.436,0.196 -0.436,0.437 0,0.24 0.196,0.436 0.436,0.436 C -0.195,0.436 0,0.24 0,0 Z"
             style="fill:none;stroke:#0084ff;stroke-width:0.498;stroke-linecap:round;stroke-linejoin:miter;stroke-miterlimit:10;stroke-dasharray:none;stroke-opacity:1"
             id="path10646"
             inkscape:connector-curvature="0" /></g><g
           id="g10648"
           transform="translate(188.3306,125.7852)"><path
             d="m 0,0 c 0,-0.318 -0.258,-0.576 -0.576,-0.576 -0.318,0 -0.576,0.258 -0.576,0.576 0,0.318 0.258,0.576 0.576,0.576 C -0.258,0.576 0,0.318 0,0"
             style="fill:#abb4bc;fill-opacity:1;fill-rule:nonzero;stroke:none"
             id="path10650"
             inkscape:connector-curvature="0" /></g><g
           id="g10652"
           transform="translate(188.3306,123.4658)"><path
             d="m 0,0 c 0,-0.317 -0.258,-0.575 -0.576,-0.575 -0.318,0 -0.576,0.258 -0.576,0.575 0,0.318 0.258,0.576 0.576,0.576 C -0.258,0.576 0,0.318 0,0"
             style="fill:#abb4bc;fill-opacity:1;fill-rule:nonzero;stroke:none"
             id="path10654"
             inkscape:connector-curvature="0" /></g><g
           id="g10656"
           transform="translate(188.3306,121.1475)"><path
             d="m 0,0 c 0,-0.318 -0.258,-0.576 -0.576,-0.576 -0.318,0 -0.576,0.258 -0.576,0.576 0,0.317 0.258,0.575 0.576,0.575 C -0.258,0.575 0,0.317 0,0"
             style="fill:#abb4bc;fill-opacity:1;fill-rule:nonzero;stroke:none"
             id="path10658"
             inkscape:connector-curvature="0" /></g><g
           id="g10660"
           transform="translate(197.4883,122.6416)"><path
             d="M 0,0 H -0.104 C -1.096,0 -1.9,0.805 -1.9,1.797 v 2.474 c 0,0.993 0.804,1.797 1.796,1.797 H 0 c 0.992,0 1.796,-0.804 1.796,-1.797 V 1.797 C 1.796,0.805 0.992,0 0,0 Z"
             style="fill:none;stroke:#0084ff;stroke-width:0.498;stroke-linecap:round;stroke-linejoin:miter;stroke-miterlimit:10;stroke-dasharray:none;stroke-opacity:1"
             id="path10662"
             inkscape:connector-curvature="0" /></g><g
           id="g10664"
           transform="translate(200.3306,124.5195)"><path
             d="m 0,0 c 0,-1.576 -1.278,-2.854 -2.854,-2.854 -1.576,0 -2.853,1.278 -2.853,2.854"
             style="fill:none;stroke:#0084ff;stroke-width:0.498;stroke-linecap:round;stroke-linejoin:miter;stroke-miterlimit:10;stroke-dasharray:none;stroke-opacity:1"
             id="path10666"
             inkscape:connector-curvature="0" /></g><g
           id="g10668"
           transform="translate(197.4771,121.666)"><path
             d="M 0,0 V -2.79"
             style="fill:none;stroke:#0084ff;stroke-width:0.498;stroke-linecap:round;stroke-linejoin:miter;stroke-miterlimit:10;stroke-dasharray:none;stroke-opacity:1"
             id="path10670"
             inkscape:connector-curvature="0" /></g><g
           id="g10672"
           transform="translate(195.5879,118.876)"><path
             d="M 0,0 H 3.696"
             style="fill:none;stroke:#0084ff;stroke-width:0.498;stroke-linecap:round;stroke-linejoin:miter;stroke-miterlimit:10;stroke-dasharray:none;stroke-opacity:1"
             id="path10674"
             inkscape:connector-curvature="0" /></g><g
           id="g10676"
           transform="translate(166.6353,118.999)"><path
             d="m 0,0 h -74.55 c -0.593,0 -1.074,0.48 -1.074,1.073 v 7.628 c 0,0.593 0.481,1.074 1.074,1.074 H 0 c 0.593,0 1.074,-0.481 1.074,-1.074 V 1.073 C 1.074,0.48 0.593,0 0,0"
             style="fill:#ffffff;fill-opacity:1;fill-rule:nonzero;stroke:none"
             id="path10678"
             inkscape:connector-curvature="0" /></g><g
           id="g10680"
           transform="translate(166.6353,118.999)"><path
             d="m 0,0 h -74.55 c -0.593,0 -1.074,0.48 -1.074,1.073 v 7.628 c 0,0.593 0.481,1.074 1.074,1.074 H 0 c 0.593,0 1.074,-0.481 1.074,-1.074 V 1.073 C 1.074,0.48 0.593,0 0,0 Z"
             style="fill:none;stroke:#e5e5e5;stroke-width:0.498;stroke-linecap:butt;stroke-linejoin:miter;stroke-miterlimit:10;stroke-dasharray:none;stroke-opacity:1"
             id="path10682"
             inkscape:connector-curvature="0" /></g><g
           id="g10684"
           transform="translate(93.3354,126.9316)"><path
             d="M 0,0 V -6.091"
             style="fill:none;stroke:#0084ff;stroke-width:0.498;stroke-linecap:round;stroke-linejoin:miter;stroke-miterlimit:10;stroke-dasharray:none;stroke-opacity:1"
             id="path10686"
             inkscape:connector-curvature="0" /></g><g
           id="g10688"
           transform="translate(81.084,124.9961)"><path
             d="M 0,0 1.992,1.66 3.486,0"
             style="fill:none;stroke:#0084ff;stroke-width:0.498;stroke-linecap:round;stroke-linejoin:miter;stroke-miterlimit:10;stroke-dasharray:none;stroke-opacity:1"
             id="path10690"
             inkscape:connector-curvature="0" /></g><g
           id="g10692"
           transform="translate(83.0762,126.6563)"><path
             d="M 0,0 V -5.229"
             style="fill:none;stroke:#0084ff;stroke-width:0.498;stroke-linecap:round;stroke-linejoin:miter;stroke-miterlimit:10;stroke-dasharray:none;stroke-opacity:1"
             id="path10694"
             inkscape:connector-curvature="0" /></g><g
           id="g10696"
           transform="translate(87.8076,124.042)"><path
             d="m 0,0 c 0,-2.613 -2.118,-4.731 -4.731,-4.731 -2.613,0 -4.731,2.118 -4.731,4.731 0,2.613 2.118,4.731 4.731,4.731 C -2.118,4.731 0,2.613 0,0 Z"
             style="fill:none;stroke:#0084ff;stroke-width:0.498;stroke-linecap:round;stroke-linejoin:miter;stroke-miterlimit:10;stroke-dasharray:none;stroke-opacity:1"
             id="path10698"
             inkscape:connector-curvature="0" /></g><g
           id="g10700"
           transform="translate(200.1206,271.1318)"><path
             d="m 0,0 v 8.01 c 0,1.903 -1.542,3.445 -3.445,3.445 h -74.664 c -1.903,0 -3.445,-1.542 -3.445,-3.445 V -3.279 c 0,-1.902 1.542,-3.445 3.445,-3.445 H -3.445 C -1.542,-6.724 0,-5.181 0,-3.279 V -3.735 C 2.407,-3.984 3.735,-2.656 3.735,-2.656 0.415,-1.66 0,0 0,0"
             style="fill:#ffffff;fill-opacity:1;fill-rule:nonzero;stroke:none"
             id="path10702"
             inkscape:connector-curvature="0" /></g><g
           id="g10704"
           transform="translate(192.251,154.915)"><path
             d="m 0,0 h -44.171 c -3.96,0 -7.17,-3.21 -7.17,-7.169 0,-3.96 3.21,-7.17 7.17,-7.17 H 0 c 3.959,0 7.169,3.21 7.169,7.17 C 7.169,-3.21 3.959,0 0,0"
             style="fill:#ffffff;fill-opacity:1;fill-rule:nonzero;stroke:none"
             id="path10706"
             inkscape:connector-curvature="0" /></g><g
           id="g10708"
           transform="translate(199.8926,143.1426)"><path
             d="m 0,0 c -0.84,0 -1.522,-0.682 -1.522,-1.522 0,-0.841 0.682,-1.522 1.522,-1.522 0.841,0 1.522,0.681 1.522,1.522 C 1.522,-0.682 0.841,0 0,0"
             style="fill:#ffffff;fill-opacity:1;fill-rule:nonzero;stroke:none"
             id="path10710"
             inkscape:connector-curvature="0" /></g><g
           id="g10712"
           transform="translate(78.5337,289.4487)"><path
             d="M 0,0 C 4.576,3.432 4.471,4.853 4.471,4.853 4.037,5.845 3.792,6.938 3.792,8.09 c 0,4.468 3.623,8.089 8.09,8.089 h 69.975 c 4.468,0 8.09,-3.621 8.09,-8.089 C 89.947,3.622 86.325,0 81.857,0 H 11.882 C 10.71,0 9.599,0.255 8.593,0.703 3.686,-2.026 0,0 0,0"
             style="fill:#63cd7a;fill-opacity:1;fill-rule:nonzero;stroke:none"
             id="path10714"
             inkscape:connector-curvature="0" /></g><g
           id="g10716"
           transform="translate(84.0356,181.9746)"><path
             d="M 0,0 V 9.323 H 86.27 V -16.575 H 0 v 9.597 l -6.017,3.768 z"
             style="fill:#63cd7a;fill-opacity:1;fill-rule:nonzero;stroke:none"
             id="path10718"
             inkscape:connector-curvature="0" /></g><g
           id="g10720"
           transform="translate(200.791,198.0645)"><path
             d="m 0,0 h -58.402 c -8.281,0 -14.994,6.713 -14.994,14.994 v 0.87 c 0,8.282 6.713,14.994 14.994,14.994 H -15.34 C -6.868,30.858 0,23.99 0,15.519 Z"
             style="fill:#ffffff;fill-opacity:1;fill-rule:nonzero;stroke:none"
             id="path10722"
             inkscape:connector-curvature="0" /></g><g
           id="g10724"
           transform="translate(84.519,256.748)"><path
             d="m 0,0 h 69.636 c 1.977,0 3.579,-1.603 3.579,-3.579 V -16.88 c 0,-1.976 -1.602,-3.579 -3.579,-3.579 H 7.478 l -5.348,-5.54 1.269,5.54 H 0 c -1.977,0 -3.579,1.603 -3.579,3.579 V -3.579 C -3.579,-1.603 -1.977,0 0,0"
             style="fill:#63cd7a;fill-opacity:1;fill-rule:nonzero;stroke:none"
             id="path10726"
             inkscape:connector-curvature="0" /></g></g></g><text
       xml:space="preserve"
       style="font-style:normal;font-weight:normal;font-size:30px;line-height:1.25;font-family:sans-serif;letter-spacing:0px;word-spacing:0px;fill:#000000;fill-opacity:1;stroke:none;stroke-width:0.75"
       x="371.90524"
       y="-289.88382"
       id="text10884"
       transform="scale(1,-1)"><tspan
         sodipodi:role="line"
         id="tspan10882"
         x="371.90524"
         y="-263.34085"
         style="stroke-width:0.75" /></text>
<text
       xml:space="preserve"
       style="font-style:normal;font-weight:normal;font-size:6px;line-height:1.25;font-family:sans-serif;letter-spacing:0px;word-spacing:0px;fill:#f9f9f9;fill-opacity:1;stroke:none;stroke-width:0.75;"
       x="94.380783"
       y="-295.87625"
       id="text10888"
       transform="scale(1,-1)"><tspan
         sodipodi:role="line"
         id="tspan10886"
         x="94.380783"
         y="-295.87625"
         style="stroke-width:0.75;fill:#f9f9f9;">Assalamu'alaikum ...</tspan></text>
<text
       xml:space="preserve"
       style="font-style:normal;font-weight:normal;font-size:6px;line-height:1.25;font-family:sans-serif;letter-spacing:0px;word-spacing:0px;fill:#000000;fill-opacity:1;stroke:none;stroke-width:0.75"
       x="128.08821"
       y="-272.28107"
       id="text10892"
       transform="scale(1,-1)"><tspan
         sodipodi:role="line"
         id="tspan10890"
         x="128.08821"
         y="-266.97247"
         style="stroke-width:0.75"></tspan></text>
<text
       xml:space="preserve"
       style="font-style:normal;font-weight:normal;font-size:6px;line-height:1.25;font-family:sans-serif;letter-spacing:0px;word-spacing:0px;fill:#000000;fill-opacity:1;stroke:none;stroke-width:0.75"
       x="123.21935"
       y="-271.90652"
       id="text10896"
       transform="scale(1,-1)"><tspan
         sodipodi:role="line"
         id="tspan10894"
         x="123.21935"
         y="-271.90652"
         style="stroke-width:0.75">Wa'alaikumussalam akhi.</tspan></text>
<text
       xml:space="preserve"
       style="font-style:normal;font-weight:normal;font-size:6px;line-height:1.25;font-family:sans-serif;letter-spacing:0px;word-spacing:0px;fill:#f9f9f9;fill-opacity:1;stroke:none;stroke-width:0.75;"
       x="86.890251"
       y="-243.06795"
       id="text10900"
       transform="scale(1,-1)"><tspan
         sodipodi:role="line"
         id="tspan10898"
         x="86.890251"
         y="-243.06795"
         style="stroke-width:0.75;fill:#f9f9f9;">Gimana Kabarnya?</tspan></text>
<text
       xml:space="preserve"
       style="font-style:normal;font-weight:normal;font-size:6px;line-height:1.25;font-family:sans-serif;letter-spacing:0px;word-spacing:0px;fill:#000000;fill-opacity:1;stroke:none;stroke-width:0.75"
       x="135.57874"
       y="-215.72749"
       id="text10904"
       transform="scale(1,-1)"><tspan
         sodipodi:role="line"
         id="tspan10902"
         x="135.57874"
         y="-215.72749"
         style="stroke-width:0.75">Baik.</tspan></text>
<text
       xml:space="preserve"
       style="font-style:normal;font-weight:normal;font-size:6px;line-height:1.25;font-family:sans-serif;letter-spacing:0px;word-spacing:0px;fill:#000000;fill-opacity:1;stroke:none;stroke-width:0.75"
       x="136.70232"
       y="-208.61148"
       id="text10908"
       transform="scale(1,-1)"><tspan
         sodipodi:role="line"
         id="tspan10906"
         x="136.70232"
         y="-208.61148"
         style="stroke-width:0.75">Alhamdulillah ...</tspan></text>
<text
       xml:space="preserve"
       style="font-style:normal;font-weight:normal;font-size:6px;line-height:1.25;font-family:sans-serif;letter-spacing:0px;word-spacing:0px;fill:#ffffff;fill-opacity:1;stroke:none;stroke-width:0.75;"
       x="93.257202"
       y="-176.40218"
       id="text10912"
       transform="scale(1,-1)"><tspan
         sodipodi:role="line"
         id="tspan10910"
         x="93.257202"
         y="-176.40218"
         style="stroke-width:0.75;fill:#ffffff;">Mari kita ngumpul lagi..</tspan></text>
<text
       xml:space="preserve"
       style="font-style:normal;font-weight:normal;font-size:6px;line-height:1.25;font-family:sans-serif;letter-spacing:0px;word-spacing:0px;fill:#000000;fill-opacity:1;stroke:none;stroke-width:0.75"
       x="147.5636"
       y="-144.94191"
       id="text10916"
       transform="scale(1,-1)"><tspan
         sodipodi:role="line"
         id="tspan10914"
         x="147.5636"
         y="-144.94191"
         style="stroke-width:0.75">insyaa Allah ...</tspan></text>
<text
       xml:space="preserve"
       style="font-style:normal;font-weight:normal;font-size:6px;line-height:1.25;font-family:sans-serif;letter-spacing:0px;word-spacing:0px;fill:#000000;fill-opacity:1;stroke:none;stroke-width:0.75"
       x="93.335403"
       y="-120.84061"
       id="text10920"
       transform="scale(1,-1)"><tspan
         sodipodi:role="line"
         id="tspan10918"
         x="93.335403"
         y="-120.84061"
         style="stroke-width:0.75">.</tspan></text>
<text
       xml:space="preserve"
       style="font-style:normal;font-weight:normal;font-size:6px;line-height:1.25;font-family:sans-serif;letter-spacing:0px;word-spacing:0px;fill:#000000;fill-opacity:1;stroke:none;stroke-width:0.75"
       x="207.11339"
       y="-64.418602"
       id="text10924"
       transform="scale(1,-1)"><tspan
         sodipodi:role="line"
         id="tspan10922"
         x="207.11339"
         y="-64.418602"
         style="stroke-width:0.75">---</tspan></text>
</g></svg>