<svg xmlns="http://www.w3.org/2000/svg" viewBox="0 0 1440 320"><path fill="#fff" fill-opacity="1" d="M0,192L17.1,176C34.3,160,69,128,103,133.3C137.1,139,171,181,206,202.7C240,224,274,224,309,240C342.9,256,377,288,411,277.3C445.7,267,480,213,514,176C548.6,139,583,117,617,122.7C651.4,128,686,160,720,181.3C754.3,203,789,213,823,192C857.1,171,891,117,926,101.3C960,85,994,107,1029,149.3C1062.9,192,1097,256,1131,240C1165.7,224,1200,128,1234,122.7C1268.6,117,1303,203,1337,208C1371.4,213,1406,139,1423,101.3L1440,64L1440,0L1422.9,0C1405.7,0,1371,0,1337,0C1302.9,0,1269,0,1234,0C1200,0,1166,0,1131,0C1097.1,0,1063,0,1029,0C994.3,0,960,0,926,0C891.4,0,857,0,823,0C788.6,0,754,0,720,0C685.7,0,651,0,617,0C582.9,0,549,0,514,0C480,0,446,0,411,0C377.1,0,343,0,309,0C274.3,0,240,0,206,0C171.4,0,137,0,103,0C68.6,0,34,0,17,0L0,0Z"></path></svg>