<?xml version="1.0" standalone="no"?><svg xmlns="http://www.w3.org/2000/svg" viewBox="0 0 1440 320"><path fill="#197070" fill-opacity="1" d="M0,160L26.7,144C53.3,128,107,96,160,74.7C213.3,53,267,43,320,69.3C373.3,96,427,160,480,186.7C533.3,213,587,203,640,176C693.3,149,747,107,800,80C853.3,53,907,43,960,58.7C1013.3,75,1067,117,1120,128C1173.3,139,1227,117,1280,106.7C1333.3,96,1387,96,1413,96L1440,96L1440,0L1413.3,0C1386.7,0,1333,0,1280,0C1226.7,0,1173,0,1120,0C1066.7,0,1013,0,960,0C906.7,0,853,0,800,0C746.7,0,693,0,640,0C586.7,0,533,0,480,0C426.7,0,373,0,320,0C266.7,0,213,0,160,0C106.7,0,53,0,27,0L0,0Z"></path></svg>